<svg width="1136" height="648" viewBox="0 0 1136 648" fill="none" xmlns="http://www.w3.org/2000/svg">
<g id="Journey 1">
<g id="kld;s">
<path id="Vector" d="M248 264C295.496 264 334 225.496 334 178C334 130.504 295.496 92 248 92C200.504 92 162 130.504 162 178C162 225.496 200.504 264 248 264Z" fill="#FF6584"/>
<path id="Vector_2" d="M1100.4 575.27C1095.34 579.821 1090.02 584.071 1084.47 588C1071.29 597.27 1057.04 604.928 1042.04 610.81C979.69 609.31 888.03 601.66 772.33 597.58C763.7 594.63 754.873 591.437 745.85 588C733.91 583.45 721.627 578.45 709 573C656.56 550.34 602.72 535.61 549.39 526.81C537.93 524.92 526.5 523.3 515.1 521.95C274.28 493.15 52.2 577.77 26.48 588H24L39.82 557.36L309 36L371.95 197.62L392.04 249.21L447.41 173.23L476 134L606.2 283.27L643 202L897.78 409.92L911.99 421.51L926.37 433.25L930.95 436.99L1067.16 548.15L1100.4 575.27Z" fill="#F2F2F2"/>
<path id="Vector_3" opacity="0.1" d="M285 141L311 84.0005L347 167L316 107L285 141Z" fill="black"/>
<path id="Vector_4" opacity="0.1" d="M549.39 526.81C537.93 524.92 526.5 523.3 515.1 521.95L392.04 249.21L549.39 526.81Z" fill="black"/>
<path id="Vector_5" opacity="0.1" d="M447.411 173.229L476 151L606 301.001L474 173L447.411 173.229Z" fill="black"/>
<path id="Vector_6" opacity="0.1" d="M606.197 283.266L866 532L830.464 540.381L606.197 283.266Z" fill="black"/>
<path id="Vector_7" d="M1136 588.5C1136 607.87 1103.04 612.28 1042.04 610.81C979.69 609.31 888.03 601.66 772.33 597.58C728.57 596.04 681.36 595 631 595C317.3 595 0 635.17 0 588.5C0 577.5 14.12 567 39.82 557.36C116.02 528.78 294 507.85 507.22 504.48C516.92 504.32 526.69 504.203 536.53 504.13C546.95 504.04 557.44 503.997 568 504C652.77 504 733.21 506.76 805.46 511.71C805.69 511.73 805.91 511.75 806.14 511.76C811.94 512.16 817.683 512.573 823.37 513C829.58 513.47 835.723 513.953 841.8 514.45C843.05 514.55 844.3 514.65 845.54 514.76C846.44 514.83 847.34 514.91 848.23 514.99C849.87 515.12 851.51 515.26 853.13 515.41C853.187 515.408 853.244 515.411 853.3 515.42C856.28 515.68 859.24 515.94 862.18 516.2C862.49 516.23 862.8 516.26 863.11 516.28C948.56 524.03 1019.18 535.04 1067.16 548.15C1111.06 560.14 1136 573.88 1136 588.5Z" fill="#3F3D56"/>
<path id="Vector_8" d="M70.8867 421.66C70.8867 485.676 111.047 537.477 160.678 537.477Z" fill="#3F3D56"/>
<path id="Vector_9" d="M160.677 537.477C160.677 472.741 205.494 420.358 260.879 420.358Z" fill="#0F4C75"/>
<path id="Vector_10" d="M103.42 427.463C103.42 488.271 129.029 537.477 160.678 537.477Z" fill="#0F4C75"/>
<path id="Vector_11" d="M160.677 537.477C160.677 454.759 212.478 387.825 276.495 387.825Z" fill="#3F3D56"/>
<path id="Vector_12" d="M141.788 538.293C141.788 538.293 154.522 537.901 158.359 535.168C162.197 532.435 177.947 529.172 178.899 533.555C179.851 537.938 198.036 555.353 183.659 555.469C169.283 555.585 150.255 553.229 146.425 550.896C142.594 548.563 141.788 538.293 141.788 538.293Z" fill="#A8A8A8"/>
<path id="Vector_13" opacity="0.2" d="M183.916 553.943C169.539 554.059 150.511 551.704 146.681 549.371C143.764 547.594 142.602 541.218 142.213 538.277C141.944 538.288 141.788 538.293 141.788 538.293C141.788 538.293 142.594 548.563 146.425 550.896C150.255 553.229 169.283 555.585 183.659 555.469C187.809 555.435 189.243 553.959 189.164 551.772C188.587 553.093 187.005 553.918 183.916 553.943Z" fill="black"/>
<path id="Vector_14" d="M762.887 412.66C762.887 476.676 803.047 528.477 852.678 528.477L762.887 412.66Z" fill="#3F3D56"/>
<path id="Vector_15" d="M852.677 528.477C852.677 463.741 897.494 411.358 952.879 411.358L852.677 528.477Z" fill="#0F4C75"/>
<path id="Vector_16" d="M795.42 418.463C795.42 479.271 821.029 528.477 852.678 528.477L795.42 418.463Z" fill="#0F4C75"/>
<path id="Vector_17" d="M852.677 528.477C852.677 445.759 904.479 378.825 968.495 378.825L852.677 528.477Z" fill="#3F3D56"/>
<path id="Vector_18" d="M833.788 529.293C833.788 529.293 846.522 528.901 850.359 526.168C854.197 523.435 869.947 520.172 870.899 524.555C871.851 528.938 890.036 546.353 875.659 546.469C861.283 546.585 842.255 544.229 838.425 541.896C834.594 539.563 833.788 529.293 833.788 529.293Z" fill="#A8A8A8"/>
<path id="Vector_19" opacity="0.2" d="M875.916 544.943C861.539 545.059 842.511 542.704 838.681 540.371C835.764 538.594 834.602 532.218 834.213 529.277C833.944 529.288 833.788 529.293 833.788 529.293C833.788 529.293 834.594 539.563 838.425 541.896C842.255 544.229 861.283 546.585 875.659 546.469C879.809 546.435 881.243 544.959 881.164 542.772C880.587 544.093 879.005 544.918 875.916 544.943Z" fill="black"/>
<path id="Vector_20" d="M499 403.957H481V436.043H499V403.957Z" fill="#3F3D56"/>
<path id="Vector_21" d="M490 416.087C491.945 416.087 493.522 414.51 493.522 412.565C493.522 410.62 491.945 409.043 490 409.043C488.055 409.043 486.478 410.62 486.478 412.565C486.478 414.51 488.055 416.087 490 416.087Z" fill="#F2F2F2"/>
<path id="Vector_22" d="M492.182 376.536C492.182 376.536 486.704 408.311 496.565 409.407C506.426 410.503 497.661 375.441 497.661 375.441L492.182 376.536Z" fill="#FFB9B9"/>
<path id="Vector_23" d="M498.756 268.063C498.756 268.063 487.252 377.084 490.539 378.728C493.826 380.371 502.591 382.563 504.235 380.919C505.878 379.276 512.453 311.891 512.453 311.891L507.522 276.829L498.756 268.063Z" fill="#575A89"/>
<path id="Vector_24" opacity="0.1" d="M498.756 268.063C498.756 268.063 487.252 377.084 490.539 378.728C493.826 380.371 502.591 382.563 504.235 380.919C505.878 379.276 512.453 311.891 512.453 311.891L507.522 276.829L498.756 268.063Z" fill="black"/>
<path id="Vector_25" d="M554.363 219.031H519.848V256.285H554.363V219.031Z" fill="#2F2E41"/>
<path id="Vector_26" d="M527.792 235.741C527.792 235.741 526.696 259.846 519.027 261.489C511.357 263.133 526.149 291.073 526.149 291.073L549.158 288.881L554.636 256.011C554.636 256.011 542.036 253.819 546.419 236.836L527.792 235.741Z" fill="#FFB9B9"/>
<path id="Vector_27" opacity="0.1" d="M527.792 235.741C527.792 235.741 526.696 259.846 519.027 261.489C511.357 263.133 526.149 291.073 526.149 291.073L549.158 288.881L554.636 256.011C554.636 256.011 542.036 253.819 546.419 236.836L527.792 235.741Z" fill="black"/>
<path id="Vector_28" d="M528.888 511.306L530.531 520.62L540.393 518.428L538.201 509.115L528.888 511.306Z" fill="#FFB9B9"/>
<path id="Vector_29" d="M560.115 497.062L556.828 506.923L567.237 512.401L567.785 504.184L560.115 497.062Z" fill="#FFB9B9"/>
<path id="Vector_30" d="M517.383 349.144C517.383 349.144 504.235 387.493 506.974 405.572C509.713 423.651 520.67 509.663 520.67 509.663C520.67 509.663 533.271 517.88 540.94 508.567L535.462 435.156C535.462 435.156 536.558 390.78 540.94 395.163C545.323 399.546 562.306 451.043 562.306 451.043L559.019 497.61C559.019 497.61 560.663 511.854 570.524 505.828L584.22 454.33C584.22 454.33 579.837 385.302 577.646 382.563C575.455 379.824 561.211 348.049 561.211 348.049L517.383 349.144Z" fill="#2F2E41"/>
<path id="Vector_31" d="M539.023 246.423C547.797 246.423 554.91 239.31 554.91 230.536C554.91 221.762 547.797 214.648 539.023 214.648C530.249 214.648 523.135 221.762 523.135 230.536C523.135 239.31 530.249 246.423 539.023 246.423Z" fill="#FFB9B9"/>
<path id="Vector_32" d="M522.862 269.707C522.862 269.707 528.888 278.472 536.558 272.446C544.227 266.42 548.61 265.872 548.61 265.872L557.924 271.35L555.732 292.716L559.019 351.883C559.019 351.883 519.027 355.17 516.835 350.788C514.644 346.405 519.575 327.778 519.575 327.778L512.453 287.786V269.707H522.862Z" fill="#0F4C75"/>
<path id="Vector_33" d="M535.462 285.594C535.462 285.594 525.601 255.463 522.314 254.915C519.027 254.367 509.713 260.941 509.713 260.941C509.713 260.941 496.017 265.324 496.017 268.063C496.017 270.803 498.209 270.803 498.209 270.803L505.878 285.594C505.878 285.594 509.166 298.743 508.07 307.508C507.409 312.777 507.226 318.094 507.522 323.396C507.522 323.396 495.469 395.711 501.496 397.902C507.522 400.094 507.522 402.285 507.522 402.285C507.522 402.285 516.287 407.216 517.931 405.024C519.574 402.833 535.462 308.604 535.462 308.604C535.462 308.604 543.68 292.716 535.462 285.594Z" fill="#575A89"/>
<path id="Vector_34" d="M537.653 285.594C537.653 285.594 542.584 274.09 539.845 266.42C539.845 266.42 542.584 265.872 543.68 264.228C544.775 262.585 543.68 254.367 546.419 253.819C549.158 253.272 569.428 253.819 570.524 254.915C571.62 256.011 574.907 263.681 574.907 263.681H573.263L561.211 283.403C561.211 283.403 567.237 320.656 566.141 326.683C565.045 332.709 582.029 357.91 584.22 359.553C586.411 361.197 596.273 387.493 591.89 390.233C587.507 392.972 549.158 410.503 547.515 401.737C545.871 392.972 534.366 340.379 534.366 340.379C534.366 340.379 533.818 311.343 535.462 304.221C537.105 297.099 537.653 285.594 537.653 285.594Z" fill="#575A89"/>
<path id="Vector_35" d="M563.402 373.249C563.402 373.249 551.897 411.051 563.402 409.407C574.907 407.764 572.168 372.154 572.168 372.154L563.402 373.249Z" fill="#FFB9B9"/>
<path id="Vector_36" d="M539.321 518.447C539.321 518.447 548.404 521.043 547.755 526.882C547.553 528.578 546.906 530.191 545.881 531.558C544.856 532.925 543.488 533.997 541.916 534.667C540.965 535.285 540.214 536.166 539.754 537.202C539.293 538.238 539.143 539.386 539.321 540.506C539.97 544.399 534.131 550.238 524.399 547.642C514.668 545.047 516.614 542.452 516.614 542.452C517.144 539.574 518.772 537.014 521.156 535.316C525.048 532.721 529.59 523.638 529.59 522.989C529.59 522.34 530.887 517.799 530.887 517.799C530.887 517.799 536.077 514.555 539.321 518.447Z" fill="#2F2E41"/>
<path id="Vector_37" d="M558.471 505.828C558.471 505.828 548.61 510.21 550.802 515.689C552.993 521.167 560.115 528.837 561.211 537.055C562.306 545.272 571.62 552.394 578.194 548.012C584.768 543.629 577.098 534.863 577.098 534.863C577.098 534.863 568.88 519.524 568.333 516.237C567.785 512.95 569.428 509.663 566.141 508.567C562.854 507.471 558.471 505.828 558.471 505.828Z" fill="#2F2E41"/>
<path id="Vector_38" opacity="0.1" d="M572.989 269.433C572.989 269.433 571.62 263.133 573.263 266.968C574.907 270.803 586.959 317.369 576.002 345.309C576.002 345.309 574.907 379.824 573.811 379.824C572.715 379.824 559.567 379.276 560.115 375.441C560.663 371.606 561.759 309.699 561.759 305.865C561.759 302.03 563.676 277.103 563.676 277.103L572.989 269.433Z" fill="black"/>
<path id="Vector_39" d="M570.524 259.846C572.28 262.025 573.753 264.418 574.907 266.968C576.55 270.803 588.603 317.369 577.646 345.309C577.646 345.309 576.55 379.824 575.455 379.824C574.359 379.824 561.211 379.276 561.758 375.441C562.306 371.606 563.402 309.699 563.402 305.865C563.402 302.03 560.115 276.281 560.115 276.281L570.524 259.846Z" fill="#575A89"/>
<path id="Vector_40" d="M530.067 202.565C524.319 204.362 520.027 209.058 516.026 213.561C514.471 215.153 513.151 216.959 512.108 218.925C511.092 221.432 510.555 224.107 510.525 226.811C510.259 231.003 510.173 235.2 510.27 239.405C510.362 243.432 510.609 247.56 509.371 251.394C508.174 255.1 505.682 258.233 503.971 261.731C501.241 267.312 500.611 274.085 503.131 279.763C504.518 282.889 506.763 285.55 508.44 288.53C511.406 293.837 512.505 299.986 511.56 305.992L519.449 295.773C524.502 289.227 529.714 282.33 531.136 274.185C533.198 262.369 526.895 250.797 525.652 238.868C525.305 235.541 525.421 231.949 527.304 229.185C530.083 225.105 536.128 223.664 537.799 219.018C538.041 220.964 549.694 227.159 551.097 225.954C551.961 228.283 552.211 230.795 551.826 233.249C551.441 235.702 550.432 238.016 548.896 239.969C547.768 241.369 546.381 242.547 545.281 243.97C542.432 247.654 541.784 252.621 542.186 257.261C542.588 261.901 543.924 266.407 544.63 271.01C545.227 275.594 545.512 280.212 545.483 284.834C545.536 288.034 545.448 291.604 543.204 293.886C546.884 292.596 550.246 290.536 553.065 287.842C554.595 286.177 556.239 284.619 557.984 283.18C561.513 280.634 566.294 279.879 569.173 276.616C571.743 273.703 572.153 269.429 571.549 265.591C570.945 261.753 569.473 258.101 568.732 254.287C567.796 249.436 568.058 244.43 569.495 239.703C570.543 236.27 572.215 232.961 572.42 229.377C572.837 222.068 567.201 215.953 561.782 211.03C553.664 203.654 541.092 199.118 530.067 202.565Z" fill="#2F2E41"/>
</g>
<g id="plaine">
<path id="Vector_41" d="M1047.19 146.367C1042.33 148.16 1033.81 149.627 1023.94 150.811C997.096 154.032 960.315 155.175 960.315 155.175C960.315 155.175 771.29 170.854 629.609 112.544C629.609 112.544 609.001 101.738 628.144 87.2005C631.085 85.0249 634.213 83.1148 637.492 81.4928C637.492 81.4928 637.571 81.4122 637.728 81.2624C639.902 79.2514 642.253 77.4396 644.751 75.8486C652.09 71.1046 664.485 65.476 679.567 68.0254L1051.66 128.212C1051.66 128.212 1065.25 139.695 1047.19 146.367Z" fill="#3F3D56"/>
<path id="Vector_42" d="M973.044 119.092L1050.94 63.8212L1085.28 69.7589L1051.66 128.211C1051.66 128.211 973.939 128.829 973.044 119.092Z" fill="#3F3D56"/>
<path id="Vector_43" d="M776.923 85.517L932.088 42L957.101 47.226L887.01 78.756L865.1 103.264L776.923 85.517Z" fill="#3F3D56"/>
<path id="Vector_44" d="M1023.94 150.811C997.096 154.031 960.315 155.175 960.315 155.175C960.315 155.175 771.29 170.854 629.609 112.544C629.609 112.544 609.001 101.738 628.144 87.2004L628.209 87.4661C628.209 87.4661 658.778 108.128 804.845 125.38L1023.94 150.811Z" fill="#0F4C75"/>
<path id="Vector_45" d="M998.992 149.616L1068.37 177.94L1085.79 176.005L1044.3 144.82C1044.3 144.82 994.109 134.117 998.992 149.616Z" fill="#3F3D56"/>
<path id="Vector_46" d="M653.338 90.4917C650.025 90.5496 642.442 84.9959 637.728 81.2624C639.903 79.2514 642.253 77.4396 644.751 75.8486C648.551 78.7653 655.316 83.4881 659.077 83.3199C664.504 83.0769 658.32 90.4055 653.338 90.4917Z" fill="#0F4C75"/>
<path id="Vector_47" d="M968.496 247.532L923.957 249.86L798.737 165.42L775.491 149.744L764.192 142.125C785.379 124.218 871.808 148.908 871.808 148.908C873.464 150.305 873.989 152.625 873.913 155.187C873.771 159.989 871.516 165.641 870.646 167.653C870.437 168.138 870.309 168.41 870.309 168.41L968.496 247.532Z" fill="#3F3D56"/>
</g>
</g>
</svg>
